<?xml version="1.0" encoding="utf-8"?>
<!-- Generator: Adobe Illustrator 22.0.1, SVG Export Plug-In . SVG Version: 6.00 Build 0)  -->
<svg version="1.1" xmlns="http://www.w3.org/2000/svg" xmlns:xlink="http://www.w3.org/1999/xlink" x="0px" y="0px"
	 viewBox="0 0 453 265" style="enable-background:new 0 0 453 265;" xml:space="preserve">
<style type="text/css">
	.st0{display:none;}
	.st1{display:inline;fill:#FFFFFF;}
	.st2{opacity:0.22;}
	.st3{fill:#A2DBF1;}
	.st4{opacity:0.3;}
	.st5{fill:#222221;}
	.st6{fill:#B3B3B3;}
	.st7{fill:#3E3E3D;}
	.st8{fill:#6F6F6F;}
	.st9{fill:#FFFFFF;}
	.st10{fill:none;stroke:#425973;stroke-width:3.3;stroke-linecap:round;stroke-linejoin:round;stroke-miterlimit:10;}
	.st11{fill:#DD9AB2;}
	.st12{fill:#D6819F;}
	.st13{fill:none;stroke:#425973;stroke-width:2.75;stroke-linecap:round;stroke-linejoin:round;stroke-miterlimit:10;}
	.st14{fill:#E9C2D0;}
	.st15{fill:#DB9022;}
	.st16{display:inline;}
	.st17{fill:none;}
	.st18{font-family:'Asap-Medium';}
	.st19{font-size:24.2px;}
	.st20{fill:#C6CFCF;}
</style>
<g id="BACKGROUND" class="st0">
	<rect x="-17" y="-62" class="st1" width="500" height="500"/>
</g>
<g id="OBJECTS">
	<g>
		<g>
			<g class="st2">
				<path class="st3" d="M251.8,50.9C212.6,63.4,88.7,1.7,98.4,85.9c1.5,12.5,9.6,30.2,2.8,41.9c-4.9,8.8-14,13.9-22.7,17.3
					c-22.8,9.3-31.3,26.7-25.5,51.5c15.5,66.9,99.6,51.1,143.7,31.2c31.4-14.8,68.5-17.3,101-4.8c25.5,10.2,41.4,31.5,71.3,25.3
					c26.5-5.3,30.5-30.4,22.8-53.7c-4.4-14.4-7.6-20.5,1.2-34.4c7.4-13.8,20.3-24.3,21.3-40.5c0.2-17.5-7.8-35.2-23.4-41.9
					c-12.8-5.4-24.3-3.2-37-6.6c-28.1-7.9-46.1-51.5-81-36.5c-8.7,4.1-13.6,13.5-23,16.3"/>
			</g>
			<g class="st4">
				<g>
					<g>
						<path class="st3" d="M237.6,44.8c3.5,0,3.5-5.5,0-5.5S234,44.8,237.6,44.8L237.6,44.8z"/>
					</g>
				</g>
				<g>
					<g>
						<path class="st3" d="M74.6,129.4c7.1,0,7.1-11,0-11C67.5,118.4,67.5,129.4,74.6,129.4L74.6,129.4z"/>
					</g>
				</g>
				<g>
					<g>
						<path class="st3" d="M405.3,173.3c7.1,0,7.1-11,0-11C398.2,162.3,398.2,173.3,405.3,173.3L405.3,173.3z"/>
					</g>
				</g>
				<g>
					<g>
						<path class="st3" d="M219,42.1c7.1,0,7.1-11,0-11C211.9,31.1,211.9,42.1,219,42.1L219,42.1z"/>
					</g>
				</g>
				<g>
					<g>
						<path class="st3" d="M416.3,155.8c9.2,0,9.2-14.3,0-14.3C407.1,141.5,407.1,155.8,416.3,155.8L416.3,155.8z"/>
					</g>
				</g>
				<g>
					<g>
						<path class="st3" d="M56.1,147.6c9.2,0,9.2-14.3,0-14.3C46.9,133.3,46.9,147.6,56.1,147.6L56.1,147.6z"/>
					</g>
				</g>
				<g>
					<g>
						<path class="st3" d="M361.3,61.6c9.2,0,9.2-14.3,0-14.3C352.1,47.3,352.1,61.6,361.3,61.6L361.3,61.6z"/>
					</g>
				</g>
				<g>
					<g>
						<path class="st3" d="M234.8,33.2c10.6,0,10.6-16.5,0-16.5C224.2,16.7,224.2,33.2,234.8,33.2L234.8,33.2z"/>
					</g>
				</g>
				<g>
					<g>
						<path class="st3" d="M422.2,168.7c5.3,0,5.3-8.3,0-8.3C416.9,160.5,416.9,168.7,422.2,168.7L422.2,168.7z"/>
					</g>
				</g>
				<g>
					<g>
						<path class="st3" d="M54.2,124.6c5.3,0,5.3-8.3,0-8.3C48.8,116.3,48.8,124.6,54.2,124.6L54.2,124.6z"/>
					</g>
				</g>
				<g>
					<g>
						<path class="st3" d="M378.5,69.6c5.3,0,5.3-8.3,0-8.3C373.2,61.3,373.2,69.6,378.5,69.6L378.5,69.6z"/>
					</g>
				</g>
				<g>
					<g>
						<path class="st3" d="M377.1,54.5c3.5,0,3.5-5.5,0-5.5S373.6,54.5,377.1,54.5L377.1,54.5z"/>
					</g>
				</g>
				<g>
					<g>
						<path class="st3" d="M98.6,45c7.1,0,7.1-11,0-11C91.5,34,91.5,45,98.6,45L98.6,45z"/>
					</g>
				</g>
				<g>
					<g>
						<path class="st3" d="M411.5,234.6c7.1,0,7.1-11,0-11C404.4,223.6,404.4,234.6,411.5,234.6L411.5,234.6z"/>
					</g>
				</g>
				<g>
					<g>
						<path class="st3" d="M54,239.4c7.1,0,7.1-11,0-11C46.9,228.4,46.9,239.4,54,239.4L54,239.4z"/>
					</g>
				</g>
				<g>
					<g>
						<path class="st3" d="M115.1,36.7c3.5,0,3.5-5.5,0-5.5C111.5,31.2,111.5,36.7,115.1,36.7L115.1,36.7z"/>
					</g>
				</g>
				<g>
					<g>
						<path class="st3" d="M412.2,212.6c3.5,0,3.5-5.5,0-5.5C408.7,207.1,408.7,212.6,412.2,212.6L412.2,212.6z"/>
					</g>
				</g>
				<g>
					<g>
						<path class="st3" d="M70.5,246.3c3.5,0,3.5-5.5,0-5.5S67,246.3,70.5,246.3L70.5,246.3z"/>
					</g>
				</g>
			</g>
		</g>
		<g>
			<g>
				<g>
					<g>
						<g>
							<g>
								<path class="st5" d="M149,153.7c-3.7,1.3-6.2,1.6-8-2.2c-1.5-2.9-2.4-5.9-4.3-8.6c-4-5.9-7.9-6.2-14.2-5.4
									c-6.3,0.8-15-0.8-15.9-8.1c-0.7-5.2-0.7-10-3-14.9c-1.1-2.4-4.7-0.3-3.6,2.1c2.5,5.4,1.4,11.3,3.3,16.8
									c1.9,5.6,8.2,7.4,13.4,8c4,0.5,7.5-0.5,11.4-0.5c4.2,0,7.1,7.2,8.4,10.4c2.8,6.6,6.7,8.8,13.7,6.3
									C152.6,156.8,151.5,152.8,149,153.7L149,153.7z"/>
							</g>
						</g>
						<g>
							<g>
								<g>
									<path class="st5" d="M105.4,108.9c-1.2,1.6-2.7,2.6-4.5,3.5c-1.9,1-0.2,3.8,1.7,2.8c2.3-1.2,4.1-2.6,5.7-4.7
										c0.5-0.7,0.1-1.8-0.6-2.3C106.8,107.8,106,108.2,105.4,108.9L105.4,108.9z"/>
								</g>
							</g>
							<g>
								<g>
									<path class="st5" d="M99.5,104.5c0,3.5,0.5,7,0.5,10.5c0,2.1,3.3,2.1,3.3,0c0-3.5-0.5-7-0.5-10.5
										C102.8,102.4,99.5,102.4,99.5,104.5L99.5,104.5z"/>
								</g>
							</g>
							<g>
								<g>
									<path class="st5" d="M94,107.9c2.2,2.8,4.5,5.5,7.5,7.4c1.8,1.1,3.5-1.7,1.7-2.8c-2.8-1.7-4.8-4.4-6.8-6.9
										C95,103.9,92.6,106.2,94,107.9L94,107.9z"/>
								</g>
							</g>
							<g>
								<g>
									<path class="st5" d="M91.2,112.8c3.1,2.9,6.9,3.9,11,2.6c2-0.6,1.2-3.8-0.9-3.2c-2.9,0.9-5.5,0.3-7.7-1.8
										C92,109,89.7,111.4,91.2,112.8L91.2,112.8z"/>
								</g>
							</g>
						</g>
					</g>
					<g>
						<g>
							<g>
								<path class="st5" d="M317.7,163.9c0.1-5.4,2-7.2,7.2-7.6c3.4-0.3,6.8-0.2,10.2-0.9c5.1-1,5-8,7-11.6c3-5.5,11.1-5,16.3-6.6
									c5.8-1.8,8-6.7,8.3-12.4c0.2-2.7-4-2.6-4.1,0c-0.5,8.5-6.7,8.7-13.5,10.1c-6,1.2-10.1,4.5-12.1,10.3c-0.7,1.8-0.8,5.6-3,6.2
									c-3.5,0.9-7.5,0.5-11.1,0.9c-6.7,0.7-9.1,5.1-9.2,11.5C313.5,166.6,317.7,166.6,317.7,163.9L317.7,163.9z"/>
							</g>
						</g>
						<g>
							<g>
								<g>
									<path class="st5" d="M357,119.8c1.4,3.4,3.8,5.8,7.2,7.2c0.8,0.3,1.8-0.4,2-1.2c0.3-1-0.3-1.7-1.2-2
										c-2.2-0.9-4-2.7-4.9-4.9c-0.3-0.8-1.1-1.4-2-1.2C357.4,118,356.6,119,357,119.8L357,119.8z"/>
								</g>
							</g>
							<g>
								<g>
									<path class="st5" d="M361.9,115.5c0,2.8,0,5.5,0,8.3c0,2.1,3.3,2.1,3.3,0c0-2.8,0-5.5,0-8.3
										C365.2,113.4,361.9,113.4,361.9,115.5L361.9,115.5z"/>
								</g>
							</g>
							<g>
								<g>
									<path class="st5" d="M367.4,116.2c-1,2.9-2.7,5.1-5.1,7c-1.6,1.3,0.7,3.7,2.3,2.3c2.8-2.3,4.7-5,5.9-8.4
										C371.3,115,368.1,114.2,367.4,116.2L367.4,116.2z"/>
								</g>
							</g>
							<g>
								<g>
									<path class="st5" d="M371.5,119.6c-1.4,2.3-3.7,3.7-6.2,4.7c-1.9,0.8-1.1,4,0.9,3.2c3.3-1.3,6.2-3.2,8.1-6.3
										C375.4,119.5,372.6,117.8,371.5,119.6L371.5,119.6z"/>
								</g>
							</g>
						</g>
					</g>
				</g>
				<g>
					<g>
						<g>
							<path class="st6" d="M337.4,223.7c0,2.9-21.6,3.7-23.9,3.7H151.8c-2.3,0-23.9-0.8-23.9-3.7l19.7-29.6c0-2.9,1.9-5.2,4.2-5.2
								h161.7c2.3,0,4.2,2.3,4.2,5.2L337.4,223.7z"/>
							<g>
								<g>
									<polygon class="st7" points="199.4,217.1 157.8,217.1 165.1,199.5 202.7,199.5 									"/>
									<polygon class="st7" points="265.9,217.1 307.4,217.1 300.2,199.5 262.6,199.5 									"/>
									<polygon class="st7" points="312,217.1 326.7,217.1 314.7,199.5 303.7,199.5 									"/>
									<polygon class="st7" points="153.2,217.1 138.6,217.1 150.6,199.5 161.6,199.5 									"/>
									<polygon class="st7" points="262.2,217.1 203,217.1 206.3,199.5 258.9,199.5 									"/>
								</g>
								<g>
									<rect x="142.2" y="202.7" class="st6" width="180.9" height="2.7"/>
									<rect x="140.2" y="209.3" class="st6" width="184.8" height="2.7"/>
								</g>
							</g>
						</g>
						<g>
							<path class="st7" d="M338.5,230.5c0,2.3-0.5,4.2-2.8,4.2H129.6c-2.3,0-2.8-1.9-2.8-4.2v-3.6c0-2.3,0.5-4.2,2.8-4.2h206.1
								c2.3,0,2.8,1.9,2.8,4.2V230.5z"/>
							<path class="st8" d="M271.3,228.8c0,1.2-1,2.2-2.2,2.2h-72.9c-1.2,0-2.2-1-2.2-2.2l0,0c0-1.2,1-2.2,2.2-2.2h72.9
								C270.3,226.6,271.3,227.6,271.3,228.8L271.3,228.8z"/>
						</g>
					</g>
					<g>
						<path class="st7" d="M319.8,190.1c0,2.3-1.9,4.2-4.2,4.2H149.7c-2.3,0-4.2-1.9-4.2-4.2V81.9c0-2.3,1.9-4.2,4.2-4.2h165.9
							c2.3,0,4.2,1.9,4.2,4.2V190.1z"/>
						<g>
							<g>
								<path class="st9" d="M232.6,83.6c2.3,0,2.3-3.5,0-3.5S230.4,83.6,232.6,83.6L232.6,83.6z"/>
							</g>
						</g>
						<g>
							<path class="st9" d="M307.6,183.3c0,2-1.6,3.6-3.6,3.6H161.3c-2,0-3.6-1.6-3.6-3.6V90.3c0-2,1.6-3.6,3.6-3.6H304
								c2,0,3.6,1.6,3.6,3.6V183.3z"/>
							<g>
								<g>
									<g>
										<line class="st10" x1="210.8" y1="124.4" x2="198.4" y2="136.8"/>
										<line class="st10" x1="210.8" y1="136.8" x2="198.4" y2="124.4"/>
									</g>
									<g>
										<line class="st10" x1="266.9" y1="124.4" x2="254.5" y2="136.8"/>
										<line class="st10" x1="266.9" y1="136.8" x2="254.5" y2="124.4"/>
									</g>
								</g>
								<g>
									<g>
										<path class="st11" d="M261.3,151.8v12.3c0,2.4-2,4.4-4.4,4.4h-2.4c-2.4,0-4.4-2-4.4-4.4v-12.3"/>
										<g>
											<polygon class="st12" points="257.7,152.5 255.7,166.8 253.8,152.5 											"/>
										</g>
									</g>
									<line class="st13" x1="195.3" y1="151.8" x2="269.9" y2="151.8"/>
								</g>
								<g>
									<g>
										<g>
											<path class="st14" d="M183.1,150c7.1,0,7.1-11,0-11C176,139,176,150,183.1,150L183.1,150z"/>
										</g>
									</g>
									<g>
										<g>
											<path class="st14" d="M282.1,150c7.1,0,7.1-11,0-11C275,139,275,150,282.1,150L282.1,150z"/>
										</g>
									</g>
								</g>
							</g>
						</g>
					</g>
				</g>
			</g>
			<g>
				<g>
					<g>
						<path class="st15" d="M291.5,63.3c0,12.1,0,24.2,0,36.3c0,3.5,5.5,3.5,5.5,0c0-12.1,0-24.2,0-36.3
							C297,59.7,291.5,59.7,291.5,63.3L291.5,63.3z"/>
					</g>
				</g>
				<g>
					<g>
						<path class="st15" d="M294.2,113.6c5.3,0,5.3-8.3,0-8.3C288.9,105.3,288.9,113.6,294.2,113.6L294.2,113.6z"/>
					</g>
				</g>
			</g>
		</g>
	</g>
	<g class="st0">
		<rect x="126.9" y="329.6" style="display:inline;fill:none;" width="218.2" height="48.5"/>
		<text transform="matrix(1 0 0 1 129.5645 336.6733)" class="st16"><tspan x="0" y="0" style="fill:#7091A4; font-family:'BloggerSans'; font-size:10px;">Lorem ipsum dolor sit amet, consectetur adipiscing </tspan><tspan x="0.6" y="12" style="fill:#7091A4; font-family:'BloggerSans'; font-size:10px;">elit, sed do eiusmod tempor incididunt ut labore et </tspan><tspan x="6.4" y="24" style="fill:#7091A4; font-family:'BloggerSans'; font-size:10px;">dolore magna aliqua. Ut enim ad minim veniam.</tspan></text>
		<g class="st16">
			<path class="st3" d="M306.2,279.8c0,4.9-3.9,8.8-8.8,8.8H168.7c-4.9,0-8.8-3.9-8.8-8.8v-17.6c0-4.9,3.9-8.8,8.8-8.8h128.7
				c4.9,0,8.8,3.9,8.8,8.8V279.8z"/>
			<rect x="165.5" y="261.8" class="st17" width="135" height="22.7"/>
			<text transform="matrix(1 0 0 1 177.9946 279.0327)" class="st9 st18 st19">404 error</text>
		</g>
		<rect x="99" y="305.9" style="display:inline;fill:none;" width="267.9" height="19"/>
		
			<text transform="matrix(1 0 0 1 130.8579 317.2622)" style="display:inline;fill:#5A788E; font-family:'Metropolis-SemiBold'; font-size:16px;">sorry, the page not found</text>
	</g>
</g>
<g id="DESIGNED_BY_FREEPIK" class="st0">
	<g class="st16">
		<g>
			<path class="st20" d="M158.9,413.7c-0.1-0.2-0.3-0.3-0.6-0.3c-0.3,0-0.5,0.1-0.6,0.3c-0.1,0.2-0.2,0.5-0.2,0.8v2.6
				c-0.3-0.4-0.7-0.6-1-0.8c-0.4-0.2-0.8-0.3-1.3-0.3c-0.9,0-1.6,0.3-2.1,0.9c-0.5,0.6-0.8,1.5-0.8,2.6c0,0.5,0.1,1,0.2,1.4
				c0.1,0.5,0.3,0.8,0.6,1.2c0.3,0.3,0.6,0.6,0.9,0.8c0.3,0.2,0.7,0.3,1.2,0.3c0.3,0,0.6-0.1,0.9-0.1c0.3-0.1,0.5-0.2,0.8-0.4
				c0.2-0.2,0.5-0.4,0.7-0.7v0.2c0,0.3,0.1,0.6,0.2,0.8c0.2,0.2,0.4,0.3,0.6,0.3c0.2,0,0.4-0.1,0.6-0.3c0.1-0.2,0.2-0.4,0.2-0.8
				v-7.8C159.1,414.1,159,413.9,158.9,413.7z M157.1,420.9c-0.2,0.3-0.4,0.6-0.6,0.7c-0.3,0.2-0.5,0.2-0.8,0.2
				c-0.3,0-0.6-0.1-0.8-0.3c-0.3-0.2-0.5-0.4-0.6-0.8c-0.1-0.3-0.2-0.7-0.2-1.2c0-0.5,0.1-0.8,0.2-1.2c0.1-0.3,0.3-0.6,0.6-0.8
				c0.3-0.2,0.5-0.3,0.9-0.3c0.3,0,0.6,0.1,0.9,0.3c0.3,0.2,0.5,0.4,0.6,0.8c0.2,0.3,0.2,0.7,0.2,1.2
				C157.3,420.1,157.3,420.5,157.1,420.9z"/>
			<path class="st20" d="M165.9,420.8c-0.2,0-0.3,0-0.4,0.1c-0.2,0.2-0.4,0.4-0.5,0.5c-0.1,0.1-0.3,0.2-0.5,0.3
				c-0.2,0.1-0.3,0.2-0.5,0.2c-0.2,0.1-0.4,0.1-0.6,0.1c-0.3,0-0.6-0.1-0.9-0.2c-0.3-0.2-0.5-0.4-0.6-0.7c-0.2-0.3-0.2-0.7-0.2-1.1
				h3.4c0.5,0,0.8-0.1,1.1-0.2c0.3-0.1,0.4-0.4,0.4-0.9c0-0.5-0.1-0.9-0.4-1.4c-0.2-0.5-0.6-0.8-1.1-1.1c-0.5-0.3-1.1-0.4-1.8-0.4
				c-0.5,0-1,0.1-1.4,0.3c-0.4,0.2-0.8,0.4-1.1,0.7c-0.3,0.3-0.5,0.7-0.7,1.1c-0.2,0.4-0.2,0.9-0.2,1.4c0,1.1,0.3,2,0.9,2.6
				c0.6,0.6,1.5,1,2.6,1c0.5,0,0.9-0.1,1.3-0.2c0.4-0.1,0.7-0.3,0.9-0.5c0.3-0.2,0.4-0.4,0.6-0.6c0.1-0.2,0.2-0.4,0.2-0.6
				c0-0.2-0.1-0.3-0.2-0.4C166.2,420.8,166.1,420.8,165.9,420.8z M162.2,417.7c0.3-0.3,0.6-0.4,1.1-0.4c0.5,0,0.8,0.1,1.1,0.4
				c0.3,0.3,0.4,0.8,0.5,1.3h-3.2C161.8,418.5,162,418,162.2,417.7z"/>
			<path class="st20" d="M172.9,420.1c-0.2-0.3-0.4-0.5-0.8-0.7c-0.3-0.2-0.8-0.3-1.3-0.5c-0.5-0.1-0.8-0.2-1.1-0.3
				c-0.3-0.1-0.5-0.2-0.6-0.3c-0.1-0.1-0.2-0.3-0.2-0.4c0-0.2,0.1-0.4,0.3-0.5c0.2-0.1,0.5-0.2,0.8-0.2c0.3,0,0.6,0.1,0.7,0.2
				c0.2,0.1,0.3,0.2,0.5,0.4c0.2,0.2,0.3,0.4,0.4,0.5c0.1,0.1,0.3,0.2,0.5,0.2c0.3,0,0.5-0.1,0.6-0.2c0.1-0.1,0.2-0.3,0.2-0.5
				c0-0.2-0.1-0.4-0.2-0.6c-0.1-0.2-0.3-0.4-0.5-0.5c-0.2-0.2-0.5-0.3-0.9-0.4c-0.4-0.1-0.8-0.1-1.2-0.1c-0.6,0-1.1,0.1-1.5,0.3
				c-0.4,0.2-0.7,0.4-0.9,0.8c-0.2,0.3-0.3,0.7-0.3,1c0,0.4,0.1,0.7,0.3,1c0.2,0.3,0.5,0.5,0.9,0.7c0.4,0.2,0.9,0.3,1.5,0.5
				c0.5,0.1,0.9,0.3,1.2,0.4c0.2,0.1,0.3,0.4,0.3,0.7c0,0.2-0.1,0.4-0.3,0.5c-0.2,0.2-0.5,0.2-0.9,0.2c-0.4,0-0.8-0.1-1-0.2
				c-0.3-0.2-0.5-0.4-0.7-0.7c-0.1-0.2-0.2-0.3-0.3-0.4c-0.1-0.1-0.2-0.1-0.4-0.1c-0.2,0-0.4,0.1-0.5,0.2c-0.1,0.1-0.2,0.3-0.2,0.5
				c0,0.3,0.1,0.6,0.3,0.9c0.2,0.3,0.6,0.5,1,0.7c0.5,0.2,1,0.3,1.6,0.3c0.7,0,1.2-0.1,1.7-0.3c0.5-0.2,0.8-0.4,1-0.8
				c0.2-0.3,0.4-0.8,0.4-1.2C173.2,420.6,173.1,420.3,172.9,420.1z"/>
			<path class="st20" d="M175.6,416.3c-0.2-0.2-0.4-0.3-0.6-0.3c-0.3,0-0.5,0.1-0.6,0.3c-0.2,0.2-0.2,0.4-0.2,0.8v5
				c0,0.3,0.1,0.6,0.2,0.8c0.2,0.2,0.4,0.3,0.6,0.3c0.3,0,0.5-0.1,0.6-0.3c0.2-0.2,0.3-0.5,0.3-0.8v-5.1
				C175.8,416.8,175.8,416.5,175.6,416.3z M175.6,413.7c-0.2-0.1-0.4-0.2-0.6-0.2c-0.2,0-0.4,0.1-0.6,0.3c-0.2,0.2-0.3,0.4-0.3,0.6
				c0,0.3,0.1,0.5,0.3,0.6c0.2,0.1,0.4,0.2,0.6,0.2c0.2,0,0.4-0.1,0.6-0.2c0.2-0.2,0.3-0.4,0.3-0.6
				C175.8,414.1,175.8,413.9,175.6,413.7z"/>
			<path class="st20" d="M183.4,416.4c-0.1-0.2-0.3-0.3-0.7-0.3c-0.2,0-0.4,0.1-0.6,0.3c-0.2,0.2-0.2,0.4-0.2,0.7v0.2
				c-0.3-0.4-0.6-0.7-1-0.9c-0.4-0.2-0.8-0.3-1.3-0.3c-0.4,0-0.8,0.1-1.1,0.2c-0.4,0.1-0.7,0.4-0.9,0.7c-0.3,0.3-0.5,0.7-0.6,1.1
				c-0.2,0.4-0.2,0.9-0.2,1.4c0,0.7,0.1,1.3,0.4,1.9c0.2,0.5,0.6,1,1,1.3c0.4,0.3,1,0.5,1.5,0.5c0.5,0,0.9-0.1,1.3-0.3
				c0.3-0.2,0.7-0.5,0.9-0.9c0,0.6,0,1,0,1.3c0,0.3-0.1,0.5-0.2,0.7c-0.1,0.2-0.3,0.4-0.5,0.5c-0.3,0.1-0.6,0.2-1.1,0.2
				c-0.2,0-0.4,0-0.6-0.1c-0.2,0-0.3-0.1-0.4-0.2c-0.1-0.1-0.2-0.2-0.3-0.3c-0.1-0.1-0.2-0.2-0.3-0.3c-0.2-0.2-0.4-0.3-0.7-0.3
				c-0.2,0-0.4,0.1-0.5,0.2c-0.1,0.1-0.2,0.3-0.2,0.5c0,0.3,0.1,0.6,0.4,0.8c0.3,0.3,0.6,0.5,1.1,0.7c0.5,0.2,1,0.3,1.6,0.3
				c0.7,0,1.2-0.1,1.7-0.2c0.4-0.1,0.8-0.3,1.1-0.6c0.3-0.3,0.5-0.6,0.6-1c0.1-0.4,0.2-0.9,0.2-1.5v-5.1
				C183.5,416.9,183.5,416.6,183.4,416.4z M181.6,420.8c-0.2,0.3-0.4,0.6-0.6,0.7c-0.3,0.2-0.5,0.2-0.8,0.2c-0.5,0-0.9-0.2-1.2-0.5
				c-0.3-0.4-0.5-0.9-0.5-1.6c0-0.7,0.2-1.3,0.5-1.6c0.3-0.4,0.7-0.6,1.2-0.6c0.5,0,0.9,0.2,1.2,0.6c0.3,0.4,0.5,1,0.5,1.7
				C181.8,420.1,181.7,420.5,181.6,420.8z"/>
			<path class="st20" d="M190.9,417.9c0-0.2-0.1-0.5-0.2-0.7c-0.2-0.4-0.5-0.7-0.8-0.9c-0.4-0.2-0.8-0.3-1.2-0.3
				c-0.5,0-0.9,0.1-1.3,0.3c-0.1,0-0.2,0.1-0.3,0.2c-0.3,0.2-0.5,0.4-0.7,0.7V417c0-0.2,0-0.4-0.1-0.5c-0.1-0.1-0.2-0.3-0.3-0.3
				c-0.1-0.1-0.3-0.1-0.4-0.1c-0.3,0-0.5,0.1-0.6,0.3c-0.2,0.2-0.2,0.4-0.2,0.8v5.1c0,0.3,0.1,0.6,0.3,0.8c0.2,0.2,0.4,0.3,0.6,0.3
				c0.3,0,0.5-0.1,0.6-0.3c0.2-0.2,0.3-0.5,0.3-0.8v-2.2c0-0.7,0-1.2,0.1-1.5c0.1-0.3,0.3-0.6,0.6-0.8c0.3-0.2,0.6-0.3,0.9-0.3
				c0.5,0,0.8,0.2,1,0.5c0.2,0.3,0.2,0.8,0.2,1.3v2.9c0,0.3,0.1,0.6,0.3,0.8c0.2,0.2,0.4,0.3,0.6,0.3c0.3,0,0.5-0.1,0.6-0.3
				c0.2-0.2,0.3-0.5,0.3-0.8v-3.3C191,418.5,190.9,418.2,190.9,417.9z"/>
			<path class="st20" d="M197.8,420.8c-0.2,0-0.3,0-0.4,0.1c-0.2,0.2-0.4,0.4-0.5,0.5c-0.1,0.1-0.3,0.2-0.5,0.3
				c-0.2,0.1-0.3,0.2-0.5,0.2c-0.2,0.1-0.3,0.1-0.5,0.1h0c0,0,0,0,0,0c-0.3,0-0.6-0.1-0.9-0.2c-0.3-0.2-0.5-0.4-0.6-0.7
				c0-0.1-0.1-0.1-0.1-0.2v0c-0.1-0.3-0.2-0.6-0.2-0.9h3.4c0.5,0,0.8-0.1,1.1-0.2c0.3-0.1,0.4-0.4,0.4-0.9c0-0.5-0.1-0.9-0.4-1.4
				c-0.2-0.5-0.6-0.8-1.1-1.1c-0.5-0.3-1.1-0.4-1.8-0.4c-0.5,0-1,0.1-1.4,0.3c-0.4,0.2-0.8,0.4-1.1,0.7c-0.3,0.3-0.5,0.7-0.7,1.1
				c-0.2,0.4-0.2,0.9-0.2,1.4c0,1.1,0.3,2,0.9,2.6c0.6,0.6,1.5,1,2.6,1c0.5,0,0.9-0.1,1.3-0.2c0,0,0,0,0,0c0.4-0.1,0.7-0.3,0.9-0.5
				c0.3-0.2,0.4-0.4,0.6-0.6c0.1-0.2,0.2-0.4,0.2-0.6c0-0.2-0.1-0.3-0.2-0.4C198.1,420.8,197.9,420.8,197.8,420.8z M194.1,417.7
				c0.3-0.3,0.6-0.4,1.1-0.4c0.5,0,0.8,0.1,1.1,0.4c0.3,0.3,0.5,0.8,0.5,1.3h-3.2C193.6,418.5,193.8,418,194.1,417.7z"/>
			<path class="st20" d="M205.6,413.7c-0.1-0.2-0.3-0.3-0.6-0.3c-0.3,0-0.5,0.1-0.6,0.3c-0.1,0.2-0.2,0.5-0.2,0.8v2.6
				c-0.3-0.4-0.7-0.6-1-0.8c-0.4-0.2-0.8-0.3-1.3-0.3c-0.9,0-1.6,0.3-2.1,0.9c-0.5,0.6-0.8,1.5-0.8,2.6c0,0.5,0.1,1,0.2,1.4
				c0.1,0.5,0.3,0.8,0.6,1.2c0.3,0.3,0.6,0.6,0.9,0.8c0.4,0.2,0.8,0.3,1.2,0.3c0.3,0,0.6-0.1,0.9-0.1c0.3-0.1,0.5-0.2,0.8-0.4
				c0.2-0.2,0.5-0.4,0.7-0.7v0.2c0,0.3,0.1,0.6,0.2,0.8c0.2,0.2,0.3,0.3,0.6,0.3c0.2,0,0.4-0.1,0.6-0.3c0.2-0.2,0.2-0.4,0.2-0.8
				v-7.8C205.9,414.1,205.8,413.9,205.6,413.7z M203.9,420.9c-0.2,0.3-0.4,0.6-0.6,0.7c-0.3,0.2-0.5,0.2-0.8,0.2
				c-0.3,0-0.6-0.1-0.8-0.3c-0.3-0.2-0.5-0.4-0.6-0.8c-0.2-0.3-0.2-0.7-0.2-1.2c0-0.5,0.1-0.8,0.2-1.2c0.1-0.3,0.3-0.6,0.6-0.8
				c0.3-0.2,0.5-0.3,0.9-0.3c0.3,0,0.6,0.1,0.9,0.3c0.3,0.2,0.5,0.4,0.6,0.8c0.2,0.3,0.2,0.7,0.2,1.2
				C204.1,420.1,204,420.5,203.9,420.9z"/>
			<path class="st20" d="M216.2,417.7c-0.2-0.5-0.6-0.9-1-1.2c-0.4-0.3-1-0.4-1.5-0.4c-0.5,0-0.9,0.1-1.3,0.3
				c-0.3,0.2-0.7,0.4-1,0.8v-2.7c0-0.3-0.1-0.6-0.2-0.7c-0.2-0.2-0.4-0.3-0.6-0.3c-0.3,0-0.5,0.1-0.6,0.3c-0.1,0.2-0.2,0.4-0.2,0.8
				v7.7c0,0.3,0.1,0.6,0.2,0.8c0.1,0.2,0.3,0.3,0.6,0.3s0.4-0.1,0.6-0.3c0.2-0.2,0.2-0.4,0.2-0.8V422c0.2,0.2,0.3,0.4,0.5,0.5
				c0.1,0.1,0.3,0.2,0.4,0.3c0.2,0.1,0.4,0.2,0.6,0.3c0.2,0.1,0.5,0.1,0.8,0.1c0.4,0,0.9-0.1,1.2-0.3c0.4-0.2,0.7-0.4,0.9-0.8
				c0.3-0.3,0.5-0.7,0.6-1.1c0.1-0.5,0.2-0.9,0.2-1.5C216.6,418.8,216.5,418.2,216.2,417.7z M214.3,421.3c-0.3,0.4-0.7,0.6-1.1,0.6
				c-0.5,0-0.9-0.2-1.3-0.6c-0.3-0.4-0.5-0.9-0.5-1.6c0-0.5,0.1-0.9,0.2-1.2c0.1-0.4,0.3-0.6,0.6-0.8c0.3-0.2,0.6-0.3,0.9-0.3
				c0.3,0,0.6,0.1,0.8,0.3c0.3,0.2,0.4,0.4,0.6,0.8c0.1,0.3,0.2,0.7,0.2,1.2C214.8,420.3,214.7,420.9,214.3,421.3z"/>
			<path class="st20" d="M223,416.5c-0.1-0.1-0.2-0.2-0.3-0.3c-0.1-0.1-0.3-0.1-0.4-0.1c-0.2,0-0.3,0-0.4,0.1
				c-0.1,0.1-0.2,0.2-0.3,0.4c-0.1,0.2-0.2,0.4-0.3,0.8l-1.4,4l-1.5-4.3c-0.1-0.3-0.2-0.5-0.3-0.7c-0.1-0.2-0.3-0.2-0.6-0.2
				c-0.2,0-0.3,0-0.4,0.1c-0.1,0.1-0.3,0.2-0.3,0.3c-0.1,0.1-0.1,0.3-0.1,0.4c0,0.2,0.1,0.4,0.2,0.7l2.2,5.4l-0.2,0.4
				c-0.1,0.3-0.2,0.5-0.3,0.7c-0.1,0.2-0.2,0.3-0.3,0.3c-0.1,0.1-0.3,0.1-0.5,0.1c-0.1,0-0.2,0-0.3,0c-0.1,0-0.2,0-0.3,0
				c-0.2,0-0.4,0.1-0.5,0.2c-0.1,0.1-0.2,0.3-0.2,0.5c0,0.3,0.1,0.5,0.4,0.6c0.3,0.1,0.6,0.2,1.2,0.2c0.5,0,0.9-0.1,1.3-0.2
				c0.3-0.2,0.6-0.4,0.8-0.7c0.2-0.3,0.4-0.7,0.6-1.2l2.3-6c0.1-0.2,0.1-0.3,0.1-0.5c0-0.1,0.1-0.3,0.1-0.3
				C223.1,416.7,223.1,416.6,223,416.5z"/>
		</g>
		<g>
			<path class="st20" d="M244.3,416.2h0.4v-0.5c0-0.6,0.1-1,0.2-1.3c0.1-0.3,0.4-0.6,0.7-0.7c0.3-0.1,0.8-0.2,1.4-0.2
				c1,0,1.5,0.3,1.5,0.8c0,0.2-0.1,0.3-0.2,0.4c-0.1,0.1-0.2,0.2-0.4,0.2c-0.1,0-0.2,0-0.4,0c-0.2,0-0.3,0-0.4,0
				c-0.3,0-0.5,0.1-0.6,0.3c-0.1,0.2-0.1,0.5-0.1,0.8v0.4h0.4c0.7,0,1,0.2,1,0.6c0,0.3-0.1,0.5-0.3,0.5c-0.2,0.1-0.4,0.1-0.7,0.1
				h-0.4v4.7c0,0.3-0.1,0.6-0.3,0.8c-0.2,0.2-0.4,0.3-0.6,0.3c-0.2,0-0.5-0.1-0.6-0.3c-0.2-0.2-0.2-0.4-0.2-0.8v-4.7h-0.5
				c-0.3,0-0.5-0.1-0.6-0.2c-0.1-0.1-0.2-0.3-0.2-0.5C243.4,416.4,243.7,416.2,244.3,416.2L244.3,416.2z"/>
			<path class="st20" d="M250.1,420.7v1.5c0,0.4-0.1,0.6-0.3,0.8c-0.2,0.2-0.4,0.3-0.6,0.3c-0.3,0-0.5-0.1-0.6-0.3
				c-0.2-0.2-0.2-0.4-0.2-0.8v-4.9c0-0.8,0.3-1.2,0.9-1.2c0.3,0,0.5,0.1,0.6,0.3c0.1,0.2,0.2,0.5,0.2,0.8c0.2-0.4,0.4-0.6,0.6-0.8
				c0.2-0.2,0.5-0.3,0.9-0.3c0.4,0,0.7,0.1,1.1,0.3c0.3,0.2,0.5,0.4,0.5,0.7c0,0.2-0.1,0.4-0.2,0.5c-0.1,0.1-0.3,0.2-0.5,0.2
				c-0.1,0-0.2,0-0.5-0.1c-0.2-0.1-0.5-0.1-0.7-0.1c-0.3,0-0.5,0.1-0.6,0.2c-0.2,0.1-0.3,0.3-0.4,0.6c-0.1,0.3-0.1,0.6-0.2,1
				C250.1,419.7,250.1,420.1,250.1,420.7L250.1,420.7z"/>
			<path class="st20" d="M258.9,420.8c-0.2,0-0.3,0-0.4,0.1c-0.2,0.2-0.4,0.4-0.5,0.5c-0.1,0.1-0.3,0.2-0.4,0.3
				c-0.2,0.1-0.3,0.2-0.5,0.2c-0.2,0.1-0.4,0.1-0.6,0.1c-0.3,0-0.6-0.1-0.9-0.2c-0.3-0.2-0.5-0.4-0.6-0.7c-0.2-0.3-0.2-0.7-0.2-1.1
				h3.4c0.5,0,0.8-0.1,1.1-0.2c0.3-0.1,0.4-0.4,0.4-0.9c0-0.5-0.1-0.9-0.4-1.4c-0.2-0.5-0.6-0.8-1.1-1.1c-0.5-0.3-1.1-0.4-1.8-0.4
				c-0.5,0-1,0.1-1.4,0.3c-0.4,0.2-0.8,0.4-1.1,0.7c-0.3,0.3-0.5,0.7-0.7,1.1c-0.2,0.5-0.2,0.9-0.2,1.5c0,1.1,0.3,2,0.9,2.6
				c0.6,0.6,1.5,1,2.6,1c0.5,0,0.9-0.1,1.3-0.2c0.4-0.1,0.7-0.3,1-0.5c0.3-0.2,0.4-0.4,0.6-0.6c0.1-0.2,0.2-0.4,0.2-0.5
				c0-0.2-0.1-0.3-0.2-0.4C259.2,420.8,259.1,420.8,258.9,420.8z M255.2,417.7c0.3-0.3,0.6-0.4,1.1-0.4c0.5,0,0.8,0.1,1.1,0.4
				c0.3,0.3,0.4,0.7,0.5,1.3h-3.2C254.8,418.5,254.9,418,255.2,417.7z"/>
			<path class="st20" d="M266.2,420.8c-0.2,0-0.3,0-0.4,0.1c-0.2,0.2-0.4,0.4-0.5,0.5c-0.1,0.1-0.3,0.2-0.5,0.3
				c-0.2,0.1-0.3,0.2-0.5,0.2c-0.2,0.1-0.4,0.1-0.6,0.1c-0.3,0-0.6-0.1-0.9-0.2c-0.3-0.2-0.5-0.4-0.6-0.7c-0.2-0.3-0.2-0.7-0.3-1.1
				h3.4c0.5,0,0.8-0.1,1.1-0.2c0.3-0.1,0.4-0.4,0.4-0.9c0-0.5-0.1-0.9-0.4-1.4c-0.2-0.5-0.6-0.8-1.1-1.1c-0.5-0.3-1.1-0.4-1.8-0.4
				c-0.5,0-1,0.1-1.4,0.3c-0.4,0.2-0.8,0.4-1.1,0.7c-0.3,0.3-0.5,0.7-0.7,1.1c-0.2,0.5-0.2,0.9-0.2,1.5c0,1.1,0.3,2,1,2.6
				c0.6,0.6,1.5,1,2.6,1c0.5,0,0.9-0.1,1.3-0.2c0.4-0.1,0.7-0.3,0.9-0.5c0.3-0.2,0.4-0.4,0.6-0.6c0.1-0.2,0.2-0.4,0.2-0.5
				c0-0.2,0-0.3-0.2-0.4C266.5,420.8,266.4,420.8,266.2,420.8z M262.5,417.7c0.3-0.3,0.6-0.4,1.1-0.4c0.5,0,0.8,0.1,1.1,0.4
				c0.3,0.3,0.4,0.7,0.5,1.3H262C262.1,418.5,262.2,418,262.5,417.7z"/>
			<path class="st20" d="M274.5,419.4c0-0.7-0.1-1.2-0.4-1.7c-0.3-0.5-0.6-0.9-1.1-1.2c-0.5-0.3-1-0.4-1.5-0.4
				c-0.5,0-0.8,0.1-1.2,0.3c-0.4,0.2-0.7,0.5-1,0.9v-0.2c0-0.3-0.1-0.6-0.2-0.7c-0.2-0.2-0.4-0.3-0.6-0.3s-0.4,0.1-0.6,0.2
				c-0.2,0.2-0.2,0.4-0.2,0.8v7.6c0,0.4,0.1,0.7,0.2,0.9c0.1,0.2,0.3,0.3,0.7,0.3c0.6,0,0.8-0.4,0.8-1.2V422
				c0.2,0.2,0.4,0.4,0.6,0.6c0.1,0.1,0.3,0.2,0.4,0.3c0.3,0.2,0.8,0.3,1.3,0.3c0.4,0,0.8-0.1,1.2-0.2c0.4-0.2,0.7-0.4,1-0.7
				c0.3-0.3,0.5-0.7,0.6-1.1c0.2-0.5,0.2-1,0.2-1.5C274.5,419.6,274.5,419.5,274.5,419.4z M272.5,420.8c-0.2,0.3-0.3,0.6-0.6,0.8
				c-0.2,0.2-0.5,0.3-0.8,0.3c-0.1,0-0.1,0-0.2,0c-0.4,0-0.8-0.2-1.1-0.6c-0.3-0.4-0.5-0.9-0.5-1.6c0-0.7,0.2-1.3,0.5-1.7
				c0.3-0.4,0.7-0.6,1.2-0.6c0.3,0,0.6,0.1,0.8,0.3c0.3,0.2,0.4,0.4,0.6,0.8c0.2,0.3,0.2,0.7,0.2,1.2c0,0.4-0.1,0.8-0.2,1.1
				C272.6,420.8,272.5,420.8,272.5,420.8z"/>
			<path class="st20" d="M276.9,416.3c-0.2-0.2-0.4-0.3-0.6-0.3c-0.3,0-0.5,0.1-0.6,0.3c-0.2,0.2-0.3,0.4-0.3,0.8v5
				c0,0.3,0.1,0.6,0.3,0.8c0.2,0.2,0.4,0.3,0.6,0.3c0.3,0,0.5-0.1,0.6-0.3c0.2-0.2,0.3-0.4,0.3-0.8v-5.1
				C277.2,416.7,277.1,416.5,276.9,416.3z M276.9,413.7c-0.2-0.2-0.4-0.2-0.6-0.2c-0.2,0-0.4,0.1-0.6,0.2c-0.2,0.2-0.3,0.4-0.3,0.6
				c0,0.3,0.1,0.5,0.3,0.6c0.2,0.2,0.4,0.2,0.6,0.2c0.2,0,0.4-0.1,0.6-0.2c0.2-0.1,0.3-0.4,0.3-0.6
				C277.2,414.1,277.1,413.9,276.9,413.7z"/>
			<path class="st20" d="M282.8,422.4l-1.5-2.6l-1,0.9v1.4c0,0.3-0.1,0.6-0.3,0.8c-0.2,0.2-0.4,0.3-0.6,0.3c-0.3,0-0.5-0.1-0.6-0.3
				c-0.2-0.2-0.2-0.4-0.2-0.8v-7.5c0-0.4,0.1-0.7,0.2-0.9c0.2-0.2,0.4-0.3,0.6-0.3c0.3,0,0.5,0.1,0.6,0.3c0.2,0.2,0.2,0.5,0.2,0.8
				v4.3l2-2.1c0.2-0.3,0.4-0.4,0.6-0.5c0.1-0.1,0.3-0.1,0.5-0.1c0.2,0,0.4,0.1,0.6,0.2c0.1,0.1,0.2,0.3,0.2,0.5c0,0.3-0.2,0.6-0.7,1
				l-0.9,0.9l1.8,2.8c0.1,0.2,0.2,0.4,0.3,0.5c0.1,0.1,0.1,0.2,0.1,0.3c0,0.3-0.1,0.5-0.2,0.7c-0.2,0.2-0.4,0.2-0.6,0.2
				c-0.2,0-0.4-0.1-0.5-0.2C283.2,422.9,283,422.7,282.8,422.4L282.8,422.4z"/>
			<path class="st20" d="M286.6,423.2c-0.3,0-0.5-0.1-0.7-0.3c-0.2-0.2-0.3-0.4-0.3-0.7c0-0.3,0.1-0.5,0.3-0.7
				c0.2-0.2,0.4-0.3,0.7-0.3c0.3,0,0.5,0.1,0.7,0.3c0.2,0.2,0.3,0.4,0.3,0.7c0,0.3-0.1,0.5-0.3,0.7
				C287.1,423.1,286.9,423.2,286.6,423.2L286.6,423.2z"/>
			<path class="st20" d="M295.4,421c0,0.2-0.1,0.5-0.2,0.7c-0.1,0.3-0.3,0.5-0.6,0.7c-0.3,0.2-0.6,0.4-1,0.5
				c-0.4,0.1-0.9,0.2-1.4,0.2c-1.1,0-1.9-0.3-2.5-0.9c-0.6-0.6-0.9-1.5-0.9-2.5c0-0.7,0.1-1.4,0.4-1.9c0.3-0.6,0.7-1,1.2-1.3
				c0.5-0.3,1.2-0.5,1.9-0.5c0.5,0,0.9,0.1,1.3,0.2c0.4,0.1,0.7,0.3,1,0.5c0.3,0.2,0.5,0.4,0.6,0.7c0.1,0.2,0.2,0.5,0.2,0.7
				c0,0.2-0.1,0.4-0.2,0.5c-0.2,0.1-0.3,0.2-0.6,0.2c-0.1,0-0.3,0-0.4-0.1c-0.1-0.1-0.2-0.2-0.3-0.4c-0.2-0.3-0.4-0.6-0.7-0.7
				c-0.2-0.2-0.5-0.2-0.9-0.2c-0.5,0-0.9,0.2-1.3,0.6c-0.3,0.4-0.5,1-0.5,1.7c0,0.3,0,0.6,0.1,0.9c0.1,0.3,0.2,0.5,0.4,0.7
				c0.2,0.2,0.3,0.3,0.6,0.4c0.2,0.1,0.5,0.2,0.7,0.2c0.4,0,0.7-0.1,0.9-0.2c0.3-0.2,0.5-0.4,0.7-0.7c0.1-0.2,0.2-0.3,0.3-0.5
				c0.1-0.1,0.3-0.2,0.5-0.2c0.2,0,0.4,0.1,0.5,0.2C295.3,420.7,295.4,420.9,295.4,421L295.4,421z"/>
			<path class="st20" d="M302.7,418.2c-0.2-0.4-0.4-0.8-0.7-1.1c-0.3-0.3-0.7-0.6-1.1-0.7c-0.4-0.2-0.9-0.3-1.5-0.3
				c-0.5,0-1,0.1-1.4,0.3c-0.4,0.2-0.8,0.4-1.1,0.7c-0.3,0.3-0.5,0.7-0.7,1.1c-0.2,0.4-0.2,0.9-0.2,1.5s0.1,1,0.2,1.4
				c0.2,0.4,0.4,0.8,0.7,1.1c0.3,0.3,0.7,0.6,1.1,0.7c0.4,0.2,0.9,0.3,1.4,0.3c0.5,0,1-0.1,1.5-0.3c0.4-0.2,0.8-0.4,1.1-0.7
				c0.3-0.3,0.5-0.7,0.7-1.1c0.2-0.4,0.2-0.9,0.2-1.4C303,419.1,302.9,418.6,302.7,418.2z M300.7,421.3c-0.3,0.4-0.7,0.6-1.3,0.6
				c-0.4,0-0.7-0.1-0.9-0.3c-0.3-0.2-0.5-0.5-0.6-0.8c-0.1-0.3-0.2-0.7-0.2-1.2c0-0.5,0.1-0.9,0.2-1.2c0.1-0.3,0.3-0.6,0.6-0.8
				c0.3-0.2,0.6-0.3,0.9-0.3c0.5,0,1,0.2,1.3,0.6c0.3,0.4,0.5,1,0.5,1.7C301.2,420.3,301,420.9,300.7,421.3z"/>
			<path class="st20" d="M309.7,419.8v2.3c0,0.4-0.1,0.6-0.3,0.8c-0.2,0.2-0.4,0.3-0.7,0.3c-0.3,0-0.5-0.1-0.6-0.3
				c-0.2-0.2-0.3-0.5-0.3-0.8v-2.8c0-0.4,0-0.8,0-1c0-0.2-0.1-0.4-0.2-0.6c-0.1-0.2-0.3-0.2-0.6-0.2c-0.6,0-1,0.2-1.1,0.6
				c-0.2,0.4-0.3,1-0.3,1.7v2.4c0,0.4-0.1,0.6-0.2,0.8c-0.2,0.2-0.4,0.3-0.7,0.3c-0.3,0-0.5-0.1-0.7-0.3c-0.2-0.2-0.3-0.5-0.3-0.8
				v-5c0-0.3,0.1-0.6,0.2-0.8c0.2-0.2,0.4-0.3,0.6-0.3c0.2,0,0.4,0.1,0.6,0.2c0.2,0.2,0.2,0.4,0.2,0.7v0.2c0.3-0.4,0.6-0.6,1-0.8
				c0.4-0.2,0.7-0.3,1.2-0.3c0.4,0,0.8,0.1,1.1,0.3c0.3,0.2,0.6,0.4,0.8,0.8c0.3-0.4,0.6-0.6,1-0.8c0.3-0.2,0.7-0.3,1.1-0.3
				c0.5,0,0.9,0.1,1.2,0.3c0.3,0.2,0.6,0.5,0.8,0.8c0.1,0.3,0.2,0.8,0.2,1.5v3.4c0,0.4-0.1,0.6-0.2,0.8c-0.2,0.2-0.4,0.3-0.7,0.3
				c-0.3,0-0.5-0.1-0.7-0.3c-0.2-0.2-0.3-0.5-0.3-0.8v-3c0-0.4,0-0.7,0-0.9c0-0.2-0.1-0.4-0.3-0.6c-0.1-0.2-0.4-0.2-0.6-0.2
				c-0.2,0-0.5,0.1-0.7,0.2c-0.2,0.1-0.4,0.3-0.5,0.6C309.7,418.5,309.7,419,309.7,419.8L309.7,419.8z"/>
		</g>
		<g>
			<path class="st20" d="M227.9,419.2C227.9,419.2,227.9,419.2,227.9,419.2C227.9,419.2,227.9,419.2,227.9,419.2z"/>
			<path class="st20" d="M228,419.8C228,419.8,228,419.8,228,419.8c0-0.2-0.1-0.3-0.1-0.5C227.9,419.5,227.9,419.6,228,419.8z"/>
			<path class="st20" d="M228.5,421.4C228.5,421.4,228.5,421.4,228.5,421.4C228.5,421.4,228.5,421.4,228.5,421.4z"/>
			<path class="st20" d="M228.5,421.3C228.5,421.3,228.5,421.2,228.5,421.3C228.5,421.2,228.5,421.3,228.5,421.3z"/>
			<path class="st20" d="M228.1,420.4c0.1,0.3,0.2,0.5,0.3,0.8C228.3,420.9,228.2,420.7,228.1,420.4
				C228.1,420.4,228.1,420.4,228.1,420.4z"/>
			<path class="st20" d="M234.7,412.5c0.3,0,0.6,0,0.9,0.1l0.1-0.5c0,0-0.8-0.2-1.8-0.2l-0.1-0.3c0.3-0.1,0.6-0.4,0.6-0.7
				c0-0.4-0.3-0.7-0.7-0.7c-0.4,0-0.7,0.3-0.7,0.7c0,0.3,0.2,0.6,0.6,0.7l0.1,0.3c-1.1,0.2-2,0.6-2,0.6l0.2,0.5
				c0.7-0.2,1.3-0.4,1.8-0.4C234,412.5,234.4,412.5,234.7,412.5z"/>
			<path class="st20" d="M228.5,415.1L228.5,415.1c0,0,0.1-0.1,0.1-0.1l-0.2-0.2l-0.3-0.2c0,0-0.5,0.5-1,1.4c0,0,0-0.1-0.1-0.1
				c-0.1-0.1-0.3-0.2-0.5-0.2c0,0,0,0,0,0c-0.1,0-0.2,0-0.3-0.1c0.1-0.1,0.1-0.2,0.1-0.3c0-0.3-0.2-0.5-0.5-0.5s-0.5,0.2-0.5,0.5
				s0.2,0.5,0.5,0.5c0,0,0.1,0,0.1,0c0.1,0.1,0.3,0.2,0.5,0.2c0.1,0,0.2,0,0.3,0.1c0.1,0.1,0.1,0.2,0.1,0.3c0,0,0,0,0,0
				c-0.3,0.8-0.2,1.8-0.2,1.8l0.7,0c0-0.4,0.1-1,0.3-1.5C228.1,415.7,228.5,415.1,228.5,415.1z"/>
			<path class="st20" d="M240.9,413.1c-0.2,0-0.5,0.2-0.5,0.5c0,0,0,0.1,0,0.1c-0.1,0.1-0.2,0.3-0.2,0.5c0,0.1,0,0.2-0.1,0.3
				c-0.1,0.1-0.1,0.1-0.2,0.1c-0.5-0.7-1.2-1.2-1.2-1.2l-0.5,0.6c0.4,0.4,0.8,0.8,1.2,1.3c0.3,0.4,0.5,0.9,0.8,1.4l0.7-0.3
				c0,0-0.3-0.8-0.8-1.5c0.1,0,0.2-0.1,0.2-0.1c0.1-0.1,0.2-0.3,0.2-0.5c0-0.1,0-0.2,0.1-0.3c0.1,0.1,0.2,0.1,0.3,0.1
				c0.3,0,0.5-0.2,0.5-0.5S241.2,413.1,240.9,413.1z"/>
			<path class="st20" d="M239.1,419.3c-1,0.5-2.5,1.1-4.6,1.4c-0.8,0.1-1.6,0.2-2.3,0.2c-0.9,0-1.8-0.1-2.4-0.2
				c-0.7-0.1-1.3-0.2-1.6-0.3c0.1,0.3,0.2,0.5,0.3,0.8c0,0,0,0,0,0c0,0,0,0.1,0,0.1c0,0,0,0.1,0,0.1c0,0,0,0,0,0
				c0.2,0.4,0.5,0.7,0.7,1.1c1,1.1,2,1.2,2,1.2l0,0l0,0c0,0,0.9,0.3,2.2,0.3c1.3,0,2.6-0.3,3.8-0.8c0.9-0.5,1.8-1.2,2.2-1.8
				c0.3-0.5,0.6-1,0.7-1.6c0.1-0.3,0.1-0.8,0.1-1.2C240.1,418.8,239.7,419,239.1,419.3z"/>
			<path class="st20" d="M239.1,415.5c-1.3-1.9-2.8-2.4-3.6-2.6c-0.3,0-0.5-0.1-0.8-0.1c-0.3,0-0.7,0-1.2,0.1
				c-0.5,0.1-1.1,0.2-1.7,0.4c-0.9,0.3-1.7,0.8-2.4,1.4l0,0c-0.1,0.1-0.3,0.3-0.5,0.6c0,0-0.5,0.6-0.8,1.5c-0.3,0.7-0.2,1.7-0.2,1.7
				c0,0.2,0,0.5,0,0.7c0,0,0,0,0,0c0,0,0,0,0,0.1c0,0.2,0.1,0.3,0.1,0.5c0.5,0.1,3.3,0.8,6.5,0.3c2-0.3,3.5-0.9,4.4-1.3
				c0.8-0.4,1.3-0.7,1.4-0.8C240.1,417.3,239.6,416.2,239.1,415.5z M231.6,418.6c-1.1,0-1.9-0.8-1.9-1.9c0-1.1,0.8-1.9,1.9-1.9
				c1.1,0,1.9,0.8,1.9,1.9C233.5,417.8,232.6,418.6,231.6,418.6z M237.1,417.2c-0.7,0-1.2-0.5-1.2-1.2c0-0.7,0.5-1.2,1.2-1.2
				c0.6,0,1.2,0.5,1.2,1.2C238.3,416.7,237.8,417.2,237.1,417.2z"/>
		</g>
	</g>
</g>
</svg>
