<?xml version="1.0" encoding="utf-8"?>
<!-- Generator: Adobe Illustrator 22.0.1, SVG Export Plug-In . SVG Version: 6.00 Build 0)  -->
<svg version="1.1" id="Capa_1" xmlns="http://www.w3.org/2000/svg" xmlns:xlink="http://www.w3.org/1999/xlink" x="0px" y="0px"
	 viewBox="0 0 243 210.5" style="enable-background:new 0 0 243 210.5;" xml:space="preserve">
<style type="text/css">
	.st0{fill:#BC262F;}
</style>
<g transform="matrix(0.41295 0 0 0.41295 17.3163 17.3163)">
	<g>
		<g>
			<path class="st0" d="M255.1,427.7H63.8c-11.7,0-21.3-9.5-21.3-21.3V23.7C42.5,12,52,2.4,63.8,2.4h191.4
				c11.8,0,21.3-9.5,21.3-21.3s-9.5-21.3-21.3-21.3H63.8C28.6-40,0-11.4,0,23.7v382.7c0,35.2,28.6,63.8,63.8,63.8h191.4
				c11.8,0,21.3-9.5,21.3-21.3S266.9,427.7,255.1,427.7z"/>
		</g>
	</g>
	<g>
		<g>
			<path class="st0" d="M505.7,200L376.4,72.4c-8.3-8.3-21.8-8.1-30.1,0.2s-8.2,21.8,0.2,30.1l92.4,91.2H191.4
				c-11.8,0-21.3,9.5-21.3,21.3c0,11.8,9.5,21.3,21.3,21.3H439l-92.4,91.2c-8.4,8.3-8.4,21.7-0.2,30.1c4.2,4.2,9.7,6.3,15.1,6.3
				s10.8-2,14.9-6.1l129.3-127.6c4-4,6.3-9.4,6.3-15.1C512,209.4,509.7,204,505.7,200z"/>
		</g>
	</g>
</g>
</svg>
