<svg xmlns="http://www.w3.org/2000/svg" viewBox="0 0 84.75 8.98"><defs><style>.cls-1{fill:#fff;}</style></defs><title>Asset 1</title><g id="Layer_2" data-name="Layer 2"><g id="Layer_1-2" data-name="Layer 1"><path class="cls-1" d="M10,8.69V3L7.68,6.53H6.84L4.5,3V8.69H3.24V1.48a3.66,3.66,0,0,0-.94.1,1.93,1.93,0,0,0-.61.27,1,1,0,0,0-.34.39,1.21,1.21,0,0,0-.1.5,1.12,1.12,0,0,0,.3.78,1.25,1.25,0,0,0,1,.32V5a3.07,3.07,0,0,1-1.11-.18,2.06,2.06,0,0,1-.78-.5,2,2,0,0,1-.46-.73A2.58,2.58,0,0,1,0,2.74a2.59,2.59,0,0,1,.18-1A2,2,0,0,1,.75,1a3,3,0,0,1,1-.51A5.38,5.38,0,0,1,3.24.29h.84L7.26,5.06,10.44.29h.84v8.4Z"/><path class="cls-1" d="M18.68,8.69,18,7H14.21l-.7,1.68H12.18c.58-1.41,1.17-2.81,1.75-4.2L15.68.29h.84l1.75,4.2L20,8.69ZM16.86,4.27l-.4-1.11L16.1,2l-.18.58c-.06.19-.12.38-.19.58l-.39,1.11L14.7,5.82h2.8Z"/><path class="cls-1" d="M25.5,8.69,22.19,4.9V8.69H20.93V.29h1.26v3.8L25.5.29H27L23.4,4.49,27,8.69Z"/><path class="cls-1" d="M28.12,8.69V.29h1.26v8.4Z"/><path class="cls-1" d="M31.31,7a2.94,2.94,0,0,0,1.09.6,4.32,4.32,0,0,0,1.31.21,3.38,3.38,0,0,0,.72-.08,2,2,0,0,0,.63-.25A1.57,1.57,0,0,0,35.5,7a1.23,1.23,0,0,0,.16-.65.94.94,0,0,0-.13-.54,1,1,0,0,0-.38-.34,2.29,2.29,0,0,0-.61-.21l-.8-.17c-.4-.08-.77-.16-1.12-.26a3.24,3.24,0,0,1-.92-.41,1.9,1.9,0,0,1-.62-.67,2.13,2.13,0,0,1-.23-1,2.65,2.65,0,0,1,.26-1.2,2.58,2.58,0,0,1,.68-.85,3,3,0,0,1,1-.5A4,4,0,0,1,33.91,0a4.76,4.76,0,0,1,2.8,1L36,2a2.7,2.7,0,0,0-.95-.57,3.25,3.25,0,0,0-1.12-.21,3,3,0,0,0-.68.08,1.92,1.92,0,0,0-.58.25,1.36,1.36,0,0,0-.41.45,1.23,1.23,0,0,0-.16.65,1,1,0,0,0,.13.55.91.91,0,0,0,.35.35,1.77,1.77,0,0,0,.52.21l.63.14c.45.09.87.18,1.26.28a3.57,3.57,0,0,1,1,.42,2,2,0,0,1,.67.67,2,2,0,0,1,.24,1,2.42,2.42,0,0,1-1,2,3.18,3.18,0,0,1-1,.5A4.4,4.4,0,0,1,33.7,9,5.29,5.29,0,0,1,32,8.7,5.15,5.15,0,0,1,30.62,8Z"/><path class="cls-1" d="M38.29,8.69V.29h5.34V1.48H39.55V3.9H43V5.09H39.55V7.5h4.08V8.69Z"/><path class="cls-1" d="M48.88,7a2.86,2.86,0,0,0,1.09.6,4.27,4.27,0,0,0,1.31.21A2.9,2.9,0,0,0,52,7.7a2,2,0,0,0,.63-.25A1.29,1.29,0,0,0,53.06,7a1.11,1.11,0,0,0,.17-.64,1,1,0,0,0-.13-.54,1,1,0,0,0-.38-.34,2.29,2.29,0,0,0-.61-.21l-.8-.18c-.4-.08-.77-.16-1.13-.26a3.18,3.18,0,0,1-.91-.41,1.9,1.9,0,0,1-.62-.67,2.22,2.22,0,0,1-.23-1.06,2.64,2.64,0,0,1,.26-1.19,2.65,2.65,0,0,1,.68-.84,3,3,0,0,1,1-.5A4,4,0,0,1,51.48,0,4.73,4.73,0,0,1,53,.25a4.55,4.55,0,0,1,1.35.7l-.7,1a2.85,2.85,0,0,0-1-.57,3.39,3.39,0,0,0-1.16-.21,3,3,0,0,0-.67.08,1.76,1.76,0,0,0-.59.26,1.41,1.41,0,0,0-.4.44,1.19,1.19,0,0,0-.16.64,1,1,0,0,0,.13.56,1,1,0,0,0,.36.35,2,2,0,0,0,.52.21l.62.14c.45.09.87.18,1.26.28a3.5,3.5,0,0,1,1,.42,2,2,0,0,1,.68.67,2,2,0,0,1,.24,1,2.42,2.42,0,0,1-1,2,3.18,3.18,0,0,1-1,.5A4.42,4.42,0,0,1,51.26,9a5.27,5.27,0,0,1-1.67-.28A5,5,0,0,1,48.19,8Z"/><path class="cls-1" d="M60.82,8.69V5.09H57.08v3.6H55.82V.29h1.26V3.9h3.74V.29h1.26v8.4Z"/><path class="cls-1" d="M69.48,8.69,68.78,7H65l-.69,1.68H63l1.74-4.2L66.48.29h.84l1.74,4.2c.59,1.39,1.17,2.79,1.76,4.2ZM67.66,4.27l-.4-1.11L66.9,2c-.07.2-.13.39-.19.58l-.18.58-.4,1.11L65.5,5.82h2.79Z"/><path class="cls-1" d="M76.27,8.69l-1.8-2.88H73V8.69H71.74V.29H74.8a3.34,3.34,0,0,1,1,.16,2.46,2.46,0,0,1,.88.5,2.26,2.26,0,0,1,.6.87,3.12,3.12,0,0,1,.23,1.24,3.33,3.33,0,0,1-.14,1,2.68,2.68,0,0,1-.36.76,2.2,2.2,0,0,1-.56.54,2.56,2.56,0,0,1-.71.33l1.92,3ZM74.8,4.62a2.12,2.12,0,0,0,.57-.08,1.25,1.25,0,0,0,.48-.26,1.21,1.21,0,0,0,.33-.48,2.22,2.22,0,0,0,.11-.74,2.28,2.28,0,0,0-.11-.75,1.25,1.25,0,0,0-.33-.49,1.27,1.27,0,0,0-.48-.27,2.12,2.12,0,0,0-.57-.07H73V4.62Z"/><path class="cls-1" d="M78.94,8.69V.29H82a3.39,3.39,0,0,1,1,.16,2.46,2.46,0,0,1,.88.5,2.37,2.37,0,0,1,.6.87,3.12,3.12,0,0,1,.22,1.24,3.32,3.32,0,0,1-.21,1.24,2.2,2.2,0,0,1-.59.85,2.65,2.65,0,0,1-.88.5A3.69,3.69,0,0,1,82,5.81H80.2V8.69ZM82,4.62a2.18,2.18,0,0,0,.57-.08A1.14,1.14,0,0,0,83,4.28a1.34,1.34,0,0,0,.34-.48,2,2,0,0,0,.12-.74,2,2,0,0,0-.12-.75A1.38,1.38,0,0,0,83,1.82a1.16,1.16,0,0,0-.47-.27A2.17,2.17,0,0,0,82,1.48H80.2V4.62Z"/></g></g></svg>