<?xml version="1.0" encoding="utf-8"?>
<!-- Generator: Adobe Illustrator 22.0.1, SVG Export Plug-In . SVG Version: 6.00 Build 0)  -->
<svg version="1.1" id="Layer_1" xmlns="http://www.w3.org/2000/svg" xmlns:xlink="http://www.w3.org/1999/xlink" x="0px" y="0px"
	 viewBox="0 0 52.9 9.3" style="enable-background:new 0 0 52.9 9.3;" xml:space="preserve">
<style type="text/css">
	.st0{fill:#FFFFFF;}
</style>
<title>Asset 1</title>
<g>
	<path class="st0" d="M11,8.9V3.2L8.7,6.7H7.8L5.5,3.2v5.7H4.2V1.7c-0.4,0-0.7,0-0.9,0.1C3.1,1.8,2.9,1.9,2.7,2
		C2.5,2.1,2.4,2.3,2.4,2.4C2.3,2.6,2.3,2.7,2.3,2.9c0,0.3,0.1,0.6,0.3,0.8C2.8,3.9,3.1,4,3.5,4v1.2C3.1,5.2,2.7,5.2,2.4,5
		C2.1,4.9,1.8,4.7,1.6,4.5S1.3,4.1,1.2,3.8C1.1,3.5,1,3.2,1,2.9c0-0.4,0.1-0.7,0.2-1c0.1-0.3,0.3-0.6,0.6-0.8C2,1,2.4,0.8,2.8,0.7
		c0.4-0.1,0.9-0.2,1.5-0.2h0.8l3.2,4.8l3.2-4.8h0.8v8.4H11z"/>
	<path class="st0" d="M19.7,8.9L19,7.2h-3.8l-0.7,1.7h-1.3c0.6-1.4,1.2-2.8,1.7-4.2s1.2-2.8,1.8-4.2h0.8c0.6,1.4,1.2,2.8,1.7,4.2
		s1.2,2.8,1.8,4.2H19.7z M17.9,4.5l-0.4-1.1l-0.4-1.2C17,2.4,17,2.6,16.9,2.8c-0.1,0.2-0.1,0.4-0.2,0.6l-0.4,1.1L15.7,6h2.8
		L17.9,4.5z"/>
	<path class="st0" d="M26.5,8.9l-3.3-3.8v3.8h-1.3V0.5h1.3v3.8l3.3-3.8H28l-3.6,4.2L28,8.9H26.5z"/>
	<path class="st0" d="M29.1,8.9V0.5h1.3v8.4H29.1z"/>
	<path class="st0" d="M32.3,7.2c0.3,0.3,0.7,0.5,1.1,0.6C33.8,7.9,34.3,8,34.7,8c0.2,0,0.5,0,0.7-0.1c0.2-0.1,0.4-0.1,0.6-0.3
		c0.2-0.1,0.3-0.3,0.4-0.4c0.1-0.2,0.2-0.4,0.2-0.7c0-0.2,0-0.4-0.1-0.5s-0.2-0.2-0.4-0.3c-0.2-0.1-0.4-0.2-0.6-0.2
		c-0.2-0.1-0.5-0.1-0.8-0.2C34.4,5.2,34,5.1,33.6,5c-0.4-0.1-0.7-0.2-0.9-0.4c-0.3-0.2-0.5-0.4-0.6-0.7c-0.2-0.3-0.2-0.6-0.2-1
		c0-0.5,0.1-0.9,0.3-1.2c0.2-0.3,0.4-0.6,0.7-0.8c0.3-0.2,0.6-0.4,1-0.5c0.4-0.1,0.7-0.2,1.1-0.2c0.5,0,1,0.1,1.5,0.3
		c0.5,0.2,0.9,0.4,1.3,0.7l-0.7,1c-0.3-0.2-0.6-0.4-1-0.6s-0.8-0.2-1.1-0.2c-0.2,0-0.5,0-0.7,0.1c-0.2,0.1-0.4,0.1-0.6,0.3
		c-0.2,0.1-0.3,0.3-0.4,0.4c-0.1,0.2-0.2,0.4-0.2,0.6c0,0.2,0,0.4,0.1,0.6c0.1,0.1,0.2,0.3,0.3,0.3c0.1,0.1,0.3,0.2,0.5,0.2
		s0.4,0.1,0.6,0.1c0.4,0.1,0.9,0.2,1.3,0.3c0.4,0.1,0.7,0.2,1,0.4c0.3,0.2,0.5,0.4,0.7,0.7c0.2,0.3,0.2,0.6,0.2,1
		c0,0.5-0.1,0.9-0.3,1.2c-0.2,0.3-0.4,0.6-0.7,0.8s-0.6,0.4-1,0.5c-0.4,0.1-0.8,0.2-1.2,0.2c-0.6,0-1.1-0.1-1.7-0.3
		c-0.5-0.2-1-0.4-1.4-0.7L32.3,7.2z"/>
	<path class="st0" d="M39.3,8.9V0.5h5.3v1.2h-4.1v2.4H44v1.2h-3.5v2.4h4.1v1.2H39.3z"/>
	<path class="st0" d="M49.7,8.9h-1l0.7-2.7H48c-0.1,0.4-0.2,0.9-0.4,1.4s-0.2,0.9-0.4,1.4h-1l0.7-2.7h-1.3V5.3h1.5l0.4-1.4h-1.3V3.1
		h1.5l0.7-2.6h1l-0.7,2.6h1.3l0.7-2.6h1l-0.7,2.6h1.2v0.8H51l-0.4,1.4h1.2v0.8h-1.5L49.7,8.9z M48.3,5.3h1.3L50,3.9h-1.3L48.3,5.3z"
		/>
</g>
</svg>
